<svg xmlns="http://www.w3.org/2000/svg" viewBox="0 0 920 880" font-family="Helvetica,Arial,sans-serif">
<rect width="920" height="880" fill="white"/>
<text x="460" y="40" text-anchor="middle" font-size="24" fill="#1a1a1a">AGI Radar — CHC domains vs the well-educated-adult anchor</text>
<text x="460" y="64" text-anchor="middle" font-size="13" fill="#555">Eras 1–2: Hendrycks et al. Table 1 (arXiv:2510.18212). Era 3: workshop estimate from public benchmarks, 2026-07-03.</text>
<circle cx="460.00" cy="420.00" r="75.00" fill="none" stroke="#cccccc" stroke-width="0.8" stroke-dasharray="4 3"/>
<text x="466.00" y="341.00" font-size="10.5" fill="#777">Competent (50th pct)</text>
<circle cx="460.00" cy="420.00" r="150.00" fill="none" stroke="#333" stroke-width="1.6"/>
<text x="466.00" y="266.00" font-size="10.5" fill="#1a1a1a">Well-educated adult (~80th)</text>
<circle cx="460.00" cy="420.00" r="187.50" fill="none" stroke="#cccccc" stroke-width="0.8" stroke-dasharray="4 3"/>
<text x="466.00" y="228.50" font-size="10.5" fill="#777">Expert (90th)</text>
<circle cx="460.00" cy="420.00" r="225.00" fill="none" stroke="#cccccc" stroke-width="0.8" stroke-dasharray="4 3"/>
<text x="466.00" y="191.00" font-size="10.5" fill="#777">Virtuoso (99th)</text>
<circle cx="460.00" cy="420.00" r="262.50" fill="none" stroke="#cccccc" stroke-width="0.8" stroke-dasharray="4 3"/>
<text x="466.00" y="153.50" font-size="10.5" fill="#777">Research team</text>
<circle cx="460.00" cy="420.00" r="300.00" fill="none" stroke="#cccccc" stroke-width="0.8" stroke-dasharray="4 3"/>
<text x="466.00" y="116.00" font-size="10.5" fill="#777">Enterprise</text>
<line x1="460.00" y1="420.00" x2="460.00" y2="120.00" stroke="#dddddd" stroke-width="0.8"/>
<text x="460.00" y="103.00" text-anchor="middle" font-size="13" fill="#1a1a1a">Mathematics</text>
<line x1="460.00" y1="420.00" x2="622.19" y2="167.62" stroke="#dddddd" stroke-width="0.8"/>
<text x="633.55" y="153.96" text-anchor="start" font-size="13" fill="#1a1a1a">General Knowledge</text>
<line x1="460.00" y1="420.00" x2="732.89" y2="295.38" stroke="#dddddd" stroke-width="0.8"/>
<text x="751.99" y="290.65" text-anchor="start" font-size="13" fill="#1a1a1a">Reading & Writing</text>
<line x1="460.00" y1="420.00" x2="756.95" y2="462.69" stroke="#dddddd" stroke-width="0.8"/>
<text x="777.73" y="469.68" text-anchor="start" font-size="13" fill="#1a1a1a">Reasoning (static)</text>
<line x1="460.00" y1="420.00" x2="686.72" y2="616.46" stroke="#dddddd" stroke-width="0.8"/>
<text x="702.60" y="634.21" text-anchor="start" font-size="13" fill="#1a1a1a">Auditory Processing</text>
<line x1="460.00" y1="420.00" x2="544.52" y2="707.85" stroke="#dddddd" stroke-width="0.8"/>
<text x="550.44" y="732.00" text-anchor="start" font-size="13" fill="#1a1a1a">Visual Processing</text>
<line x1="460.00" y1="420.00" x2="375.48" y2="707.85" stroke="#dddddd" stroke-width="0.8"/>
<text x="369.56" y="732.00" text-anchor="end" font-size="13" fill="#1a1a1a">LT Memory Retrieval</text>
<line x1="460.00" y1="420.00" x2="233.28" y2="616.46" stroke="#dddddd" stroke-width="0.8"/>
<text x="217.40" y="634.21" text-anchor="end" font-size="13" fill="#1a1a1a">Working Memory</text>
<line x1="460.00" y1="420.00" x2="163.05" y2="462.69" stroke="#dddddd" stroke-width="0.8"/>
<text x="142.27" y="469.68" text-anchor="end" font-size="13" fill="#1a1a1a">Speed</text>
<line x1="460.00" y1="420.00" x2="187.11" y2="295.38" stroke="#dddddd" stroke-width="0.8"/>
<text x="168.01" y="290.65" text-anchor="end" font-size="13" fill="#1a1a1a">LT Memory Storage</text>
<line x1="460.00" y1="420.00" x2="297.81" y2="167.62" stroke="#dddddd" stroke-width="0.8"/>
<text x="286.45" y="153.96" text-anchor="end" font-size="13" fill="#1a1a1a">Reasoning (dynamic)</text>
<polygon points="460.00,360.00 524.88,319.05 541.87,382.61 460.00,420.00 460.00,420.00 460.00,420.00 443.10,477.57 437.33,439.65 415.46,426.40 460.00,420.00 460.00,420.00" fill="#9db4c8" fill-opacity="0.14" stroke="#9db4c8" stroke-width="2"/>
<circle cx="460.00" cy="360.00" r="3" fill="#9db4c8"/>
<circle cx="524.88" cy="319.05" r="3" fill="#9db4c8"/>
<circle cx="541.87" cy="382.61" r="3" fill="#9db4c8"/>
<circle cx="460.00" cy="420.00" r="3" fill="#9db4c8"/>
<circle cx="460.00" cy="420.00" r="3" fill="#9db4c8"/>
<circle cx="460.00" cy="420.00" r="3" fill="#9db4c8"/>
<circle cx="443.10" cy="477.57" r="3" fill="#9db4c8"/>
<circle cx="437.33" cy="439.65" r="3" fill="#9db4c8"/>
<circle cx="415.46" cy="426.40" r="3" fill="#9db4c8"/>
<circle cx="460.00" cy="420.00" r="3" fill="#9db4c8"/>
<circle cx="460.00" cy="420.00" r="3" fill="#9db4c8"/>
<polygon points="460.00,270.00 532.99,306.43 596.44,357.69 563.93,434.94 528.02,478.94 476.90,477.57 443.10,477.57 414.66,459.29 415.46,426.40 460.00,420.00 403.23,331.67" fill="#4a7ba6" fill-opacity="0.14" stroke="#4a7ba6" stroke-width="2"/>
<circle cx="460.00" cy="270.00" r="3" fill="#4a7ba6"/>
<circle cx="532.99" cy="306.43" r="3" fill="#4a7ba6"/>
<circle cx="596.44" cy="357.69" r="3" fill="#4a7ba6"/>
<circle cx="563.93" cy="434.94" r="3" fill="#4a7ba6"/>
<circle cx="528.02" cy="478.94" r="3" fill="#4a7ba6"/>
<circle cx="476.90" cy="477.57" r="3" fill="#4a7ba6"/>
<circle cx="443.10" cy="477.57" r="3" fill="#4a7ba6"/>
<circle cx="414.66" cy="459.29" r="3" fill="#4a7ba6"/>
<circle cx="415.46" cy="426.40" r="3" fill="#4a7ba6"/>
<circle cx="460.00" cy="420.00" r="3" fill="#4a7ba6"/>
<circle cx="403.23" cy="331.67" r="3" fill="#4a7ba6"/>
<polygon points="460.00,195.00 561.37,262.26 596.44,357.69 586.20,438.15 550.69,498.58 489.58,520.75 434.64,506.35 391.98,478.94 415.46,426.40 446.36,413.77 455.95,413.69" fill="#c0392b" fill-opacity="0.14" stroke="#c0392b" stroke-width="2"/>
<circle cx="460.00" cy="195.00" r="3" fill="#c0392b"/>
<circle cx="561.37" cy="262.26" r="3" fill="#c0392b"/>
<circle cx="596.44" cy="357.69" r="3" fill="#c0392b"/>
<circle cx="586.20" cy="438.15" r="3" fill="#c0392b"/>
<circle cx="550.69" cy="498.58" r="3" fill="#c0392b"/>
<circle cx="489.58" cy="520.75" r="3" fill="#c0392b"/>
<circle cx="434.64" cy="506.35" r="3" fill="#c0392b"/>
<circle cx="391.98" cy="478.94" r="3" fill="#c0392b"/>
<circle cx="415.46" cy="426.40" r="3" fill="#c0392b"/>
<circle cx="446.36" cy="413.77" r="3" fill="#c0392b"/>
<circle cx="455.95" cy="413.69" r="3" fill="#c0392b"/>
<rect x="120" y="790" width="14" height="14" fill="#9db4c8" fill-opacity="0.35" stroke-width="2" stroke="#9db4c8"/>
<text x="140" y="802" font-size="13" fill="#1a1a1a">GPT-4 era (2023)</text>
<rect x="380" y="790" width="14" height="14" fill="#4a7ba6" fill-opacity="0.35" stroke-width="2" stroke="#4a7ba6"/>
<text x="400" y="802" font-size="13" fill="#1a1a1a">GPT-5 era (2025)</text>
<rect x="640" y="790" width="14" height="14" fill="#c0392b" fill-opacity="0.35" stroke-width="2" stroke="#c0392b"/>
<text x="660" y="802" font-size="13" fill="#1a1a1a">Mythos-class (mid-2026)</text>
<text x="460" y="836" text-anchor="middle" font-size="11.5" fill="#555">Rings above the anchor are ordinal thresholds (GDM performance levels; collective rings from Genewein et al. 2026), not a linear scale.</text>
<text x="460" y="854" text-anchor="middle" font-size="11.5" fill="#555">Axes ordered by mid-2026 value, highest at 12 o’clock, clockwise. Note Reasoning (static) vs Reasoning (dynamic).</text>
</svg>
